<mxfile host="app.diagrams.net" modified="2020-09-04T11:25:20.412Z" agent="5.0 (X11; Linux x86_64) AppleWebKit/537.36 (KHTML, like Gecko) Chrome/85.0.4183.83 Safari/537.36" etag="vfW3EZhw3z23L8eEG4rU" version="13.6.5" type="github">
  <diagram id="EeadG67xCyOba-YVA_OM" name="Page-1">
    <mxGraphModel dx="1041" dy="494" grid="1" gridSize="10" guides="1" tooltips="1" connect="1" arrows="1" fold="1" page="1" pageScale="1" pageWidth="1654" pageHeight="2336" math="0" shadow="0">
      <root>
        <mxCell id="0" />
        <mxCell id="1" parent="0" />
        <mxCell id="C67LLcp0CAZSQti3y-RA-7" value="res.company" style="swimlane;childLayout=stackLayout;horizontal=1;startSize=30;horizontalStack=0;rounded=1;fontSize=14;fontStyle=0;strokeWidth=2;resizeParent=0;resizeLast=1;shadow=0;dashed=0;align=center;" parent="1" vertex="1">
          <mxGeometry x="1220" y="90" width="160" height="120" as="geometry" />
        </mxCell>
        <mxCell id="C67LLcp0CAZSQti3y-RA-8" value="+native_attributes" style="align=left;strokeColor=none;fillColor=none;spacingLeft=4;fontSize=12;verticalAlign=top;resizable=0;rotatable=0;part=1;" parent="C67LLcp0CAZSQti3y-RA-7" vertex="1">
          <mxGeometry y="30" width="160" height="90" as="geometry" />
        </mxCell>
        <mxCell id="C67LLcp0CAZSQti3y-RA-1" value="data.tracking(suivi)" style="swimlane;childLayout=stackLayout;horizontal=1;startSize=30;horizontalStack=0;rounded=1;fontSize=14;fontStyle=0;strokeWidth=2;resizeParent=0;resizeLast=1;shadow=0;dashed=0;align=center;" parent="1" vertex="1">
          <mxGeometry x="690" y="370" width="160" height="280" as="geometry" />
        </mxCell>
        <mxCell id="C67LLcp0CAZSQti3y-RA-2" value="+id PK&#xa;+create_date&#xa;+create_uid FK&#xa;+write_date&#xa;+write_uid&#xa;+display_name&#xa;+company_id FK&#xa;+currency_id FK&#xa;+name&#xa;+employee_id FK&#xa;+rate_validity&#xa;+weekly_cons&#xa;+average_base&#xa;+active&#xa;+data_tracking_debit_ids&#xa;+data_tracking_credit_ids&#xa;&#xa;&#xa;&#xa;&#xa;" style="align=left;strokeColor=none;fillColor=none;spacingLeft=4;fontSize=12;verticalAlign=top;resizable=0;rotatable=0;part=1;" parent="C67LLcp0CAZSQti3y-RA-1" vertex="1">
          <mxGeometry y="30" width="160" height="250" as="geometry" />
        </mxCell>
        <mxCell id="UNE42eeyvyQ6CrdMO4MG-21" style="edgeStyle=orthogonalEdgeStyle;rounded=0;orthogonalLoop=1;jettySize=auto;html=1;entryX=0.006;entryY=0.84;entryDx=0;entryDy=0;entryPerimeter=0;" parent="1" source="C67LLcp0CAZSQti3y-RA-16" target="C67LLcp0CAZSQti3y-RA-2" edge="1">
          <mxGeometry relative="1" as="geometry" />
        </mxCell>
        <mxCell id="C67LLcp0CAZSQti3y-RA-16" value="data.tracking.debit" style="swimlane;childLayout=stackLayout;horizontal=1;startSize=30;horizontalStack=0;rounded=1;fontSize=14;fontStyle=0;strokeWidth=2;resizeParent=0;resizeLast=1;shadow=0;dashed=0;align=center;" parent="1" vertex="1">
          <mxGeometry x="410" y="760" width="160" height="280" as="geometry" />
        </mxCell>
        <mxCell id="C67LLcp0CAZSQti3y-RA-17" value="+id PK&#xa;+create_date&#xa;+create_uid FK&#xa;+write_date&#xa;+write_uid&#xa;+display_name&#xa;+company_id FK&#xa;+currency_id FK&#xa;+remaining_data&#xa;+date&#xa;+project_ids FK&#xa;+note (commentaire)&#xa;+daily_cons&#xa;+data_tracking_id FK&#xa;&#xa;&#xa;&#xa;&#xa;&#xa;" style="align=left;strokeColor=none;fillColor=none;spacingLeft=4;fontSize=12;verticalAlign=top;resizable=0;rotatable=0;part=1;" parent="C67LLcp0CAZSQti3y-RA-16" vertex="1">
          <mxGeometry y="30" width="160" height="250" as="geometry" />
        </mxCell>
        <mxCell id="UNE42eeyvyQ6CrdMO4MG-1" value="project.project" style="swimlane;childLayout=stackLayout;horizontal=1;startSize=30;horizontalStack=0;rounded=1;fontSize=14;fontStyle=0;strokeWidth=2;resizeParent=0;resizeLast=1;shadow=0;dashed=0;align=center;" parent="1" vertex="1">
          <mxGeometry x="80" y="770" width="160" height="120" as="geometry" />
        </mxCell>
        <mxCell id="UNE42eeyvyQ6CrdMO4MG-2" value="+native_attributes" style="align=left;strokeColor=none;fillColor=none;spacingLeft=4;fontSize=12;verticalAlign=top;resizable=0;rotatable=0;part=1;" parent="UNE42eeyvyQ6CrdMO4MG-1" vertex="1">
          <mxGeometry y="30" width="160" height="90" as="geometry" />
        </mxCell>
        <mxCell id="UNE42eeyvyQ6CrdMO4MG-4" value="data.tracking.credit" style="swimlane;childLayout=stackLayout;horizontal=1;startSize=30;horizontalStack=0;rounded=1;fontSize=14;fontStyle=0;strokeWidth=2;resizeParent=0;resizeLast=1;shadow=0;dashed=0;align=center;" parent="1" vertex="1">
          <mxGeometry x="960" y="760" width="160" height="280" as="geometry" />
        </mxCell>
        <mxCell id="UNE42eeyvyQ6CrdMO4MG-5" value="+id PK&#xa;+create_date&#xa;+create_uid FK&#xa;+write_date&#xa;+write_uid&#xa;+display_name&#xa;+company_id FK&#xa;+date&#xa;+note&#xa;+recharge&#xa;+rate_id FK&#xa;+employee_id&#xa;+data_tracking_id FK&#xa;&#xa;&#xa;&#xa;&#xa;&#xa;&#xa;" style="align=left;strokeColor=none;fillColor=none;spacingLeft=4;fontSize=12;verticalAlign=top;resizable=0;rotatable=0;part=1;" parent="UNE42eeyvyQ6CrdMO4MG-4" vertex="1">
          <mxGeometry y="30" width="160" height="250" as="geometry" />
        </mxCell>
        <mxCell id="C67LLcp0CAZSQti3y-RA-11" value="hr.employee" style="swimlane;childLayout=stackLayout;horizontal=1;startSize=30;horizontalStack=0;rounded=1;fontSize=14;fontStyle=0;strokeWidth=2;resizeParent=0;resizeLast=1;shadow=0;dashed=0;align=center;" parent="1" vertex="1">
          <mxGeometry x="1220" y="380" width="160" height="120" as="geometry" />
        </mxCell>
        <mxCell id="C67LLcp0CAZSQti3y-RA-12" value="+native_attributes" style="align=left;strokeColor=none;fillColor=none;spacingLeft=4;fontSize=12;verticalAlign=top;resizable=0;rotatable=0;part=1;" parent="C67LLcp0CAZSQti3y-RA-11" vertex="1">
          <mxGeometry y="30" width="160" height="90" as="geometry" />
        </mxCell>
        <mxCell id="C67LLcp0CAZSQti3y-RA-13" value="res.currency" style="swimlane;childLayout=stackLayout;horizontal=1;startSize=30;horizontalStack=0;rounded=1;fontSize=14;fontStyle=0;strokeWidth=2;resizeParent=0;resizeLast=1;shadow=0;dashed=0;align=center;" parent="1" vertex="1">
          <mxGeometry x="1230" y="640" width="160" height="120" as="geometry" />
        </mxCell>
        <mxCell id="C67LLcp0CAZSQti3y-RA-14" value="+native_attributes" style="align=left;strokeColor=none;fillColor=none;spacingLeft=4;fontSize=12;verticalAlign=top;resizable=0;rotatable=0;part=1;" parent="C67LLcp0CAZSQti3y-RA-13" vertex="1">
          <mxGeometry y="30" width="160" height="90" as="geometry" />
        </mxCell>
        <mxCell id="UNE42eeyvyQ6CrdMO4MG-25" style="edgeStyle=orthogonalEdgeStyle;rounded=0;orthogonalLoop=1;jettySize=auto;html=1;entryX=1.019;entryY=0.68;entryDx=0;entryDy=0;entryPerimeter=0;" parent="1" source="UNE42eeyvyQ6CrdMO4MG-8" target="UNE42eeyvyQ6CrdMO4MG-5" edge="1">
          <mxGeometry relative="1" as="geometry" />
        </mxCell>
        <mxCell id="UNE42eeyvyQ6CrdMO4MG-8" value="data.rate" style="swimlane;childLayout=stackLayout;horizontal=1;startSize=30;horizontalStack=0;rounded=1;fontSize=14;fontStyle=0;strokeWidth=2;resizeParent=0;resizeLast=1;shadow=0;dashed=0;align=center;" parent="1" vertex="1">
          <mxGeometry x="1230" y="990" width="160" height="280" as="geometry" />
        </mxCell>
        <mxCell id="UNE42eeyvyQ6CrdMO4MG-9" value="+id PK&#xa;+create_date&#xa;+create_uid FK&#xa;+write_date&#xa;+write_uid&#xa;+display_name&#xa;+company_id FK&#xa;+currency_id FK&#xa;+name&#xa;+data_validity&#xa;+data&#xa;+type_validity&#xa;+amount&#xa;+currency_id FK&#xa;&#xa;&#xa;&#xa;&#xa;&#xa;" style="align=left;strokeColor=none;fillColor=none;spacingLeft=4;fontSize=12;verticalAlign=top;resizable=0;rotatable=0;part=1;" parent="UNE42eeyvyQ6CrdMO4MG-8" vertex="1">
          <mxGeometry y="30" width="160" height="250" as="geometry" />
        </mxCell>
        <mxCell id="UNE42eeyvyQ6CrdMO4MG-12" style="edgeStyle=orthogonalEdgeStyle;rounded=0;orthogonalLoop=1;jettySize=auto;html=1;exitX=0;exitY=0;exitDx=0;exitDy=0;entryX=0.5;entryY=0;entryDx=0;entryDy=0;" parent="1" source="C67LLcp0CAZSQti3y-RA-8" target="C67LLcp0CAZSQti3y-RA-9" edge="1">
          <mxGeometry relative="1" as="geometry">
            <mxPoint x="170" y="380" as="targetPoint" />
          </mxGeometry>
        </mxCell>
        <mxCell id="UNE42eeyvyQ6CrdMO4MG-13" style="edgeStyle=orthogonalEdgeStyle;rounded=0;orthogonalLoop=1;jettySize=auto;html=1;entryX=0.5;entryY=0;entryDx=0;entryDy=0;" parent="1" source="C67LLcp0CAZSQti3y-RA-8" target="UNE42eeyvyQ6CrdMO4MG-1" edge="1">
          <mxGeometry relative="1" as="geometry">
            <mxPoint x="340" y="620" as="targetPoint" />
            <Array as="points">
              <mxPoint x="340" y="130" />
              <mxPoint x="340" y="690" />
              <mxPoint x="160" y="690" />
            </Array>
          </mxGeometry>
        </mxCell>
        <mxCell id="UNE42eeyvyQ6CrdMO4MG-14" style="edgeStyle=orthogonalEdgeStyle;rounded=0;orthogonalLoop=1;jettySize=auto;html=1;entryX=0.456;entryY=-0.014;entryDx=0;entryDy=0;entryPerimeter=0;" parent="1" source="C67LLcp0CAZSQti3y-RA-8" target="C67LLcp0CAZSQti3y-RA-16" edge="1">
          <mxGeometry relative="1" as="geometry" />
        </mxCell>
        <mxCell id="UNE42eeyvyQ6CrdMO4MG-15" style="edgeStyle=orthogonalEdgeStyle;rounded=0;orthogonalLoop=1;jettySize=auto;html=1;exitX=0;exitY=0.75;exitDx=0;exitDy=0;entryX=0.5;entryY=0;entryDx=0;entryDy=0;" parent="1" source="C67LLcp0CAZSQti3y-RA-8" target="C67LLcp0CAZSQti3y-RA-1" edge="1">
          <mxGeometry relative="1" as="geometry">
            <mxPoint x="770" y="360" as="targetPoint" />
          </mxGeometry>
        </mxCell>
        <mxCell id="UNE42eeyvyQ6CrdMO4MG-17" style="edgeStyle=orthogonalEdgeStyle;rounded=0;orthogonalLoop=1;jettySize=auto;html=1;entryX=0.5;entryY=0;entryDx=0;entryDy=0;" parent="1" source="C67LLcp0CAZSQti3y-RA-8" target="C67LLcp0CAZSQti3y-RA-11" edge="1">
          <mxGeometry relative="1" as="geometry" />
        </mxCell>
        <mxCell id="UNE42eeyvyQ6CrdMO4MG-18" style="edgeStyle=orthogonalEdgeStyle;rounded=0;orthogonalLoop=1;jettySize=auto;html=1;exitX=1;exitY=0.75;exitDx=0;exitDy=0;entryX=1.006;entryY=0.356;entryDx=0;entryDy=0;entryPerimeter=0;" parent="1" source="C67LLcp0CAZSQti3y-RA-8" target="C67LLcp0CAZSQti3y-RA-12" edge="1">
          <mxGeometry relative="1" as="geometry">
            <Array as="points">
              <mxPoint x="1400" y="188" />
              <mxPoint x="1400" y="442" />
            </Array>
          </mxGeometry>
        </mxCell>
        <mxCell id="UNE42eeyvyQ6CrdMO4MG-19" style="edgeStyle=orthogonalEdgeStyle;rounded=0;orthogonalLoop=1;jettySize=auto;html=1;entryX=1;entryY=0.5;entryDx=0;entryDy=0;" parent="1" source="C67LLcp0CAZSQti3y-RA-8" target="C67LLcp0CAZSQti3y-RA-14" edge="1">
          <mxGeometry relative="1" as="geometry">
            <Array as="points">
              <mxPoint x="1440" y="165" />
              <mxPoint x="1440" y="715" />
            </Array>
          </mxGeometry>
        </mxCell>
        <mxCell id="C67LLcp0CAZSQti3y-RA-9" value="res.users" style="swimlane;childLayout=stackLayout;horizontal=1;startSize=30;horizontalStack=0;rounded=1;fontSize=14;fontStyle=0;strokeWidth=2;resizeParent=0;resizeLast=1;shadow=0;dashed=0;align=center;" parent="1" vertex="1">
          <mxGeometry x="90" y="390" width="160" height="120" as="geometry" />
        </mxCell>
        <mxCell id="C67LLcp0CAZSQti3y-RA-10" value="+native_attributes" style="align=left;strokeColor=none;fillColor=none;spacingLeft=4;fontSize=12;verticalAlign=top;resizable=0;rotatable=0;part=1;" parent="C67LLcp0CAZSQti3y-RA-9" vertex="1">
          <mxGeometry y="30" width="160" height="90" as="geometry" />
        </mxCell>
        <mxCell id="UNE42eeyvyQ6CrdMO4MG-20" style="edgeStyle=orthogonalEdgeStyle;rounded=0;orthogonalLoop=1;jettySize=auto;html=1;exitX=1;exitY=0;exitDx=0;exitDy=0;" parent="1" source="C67LLcp0CAZSQti3y-RA-8" target="UNE42eeyvyQ6CrdMO4MG-9" edge="1">
          <mxGeometry relative="1" as="geometry">
            <Array as="points">
              <mxPoint x="1380" y="100" />
              <mxPoint x="1490" y="100" />
              <mxPoint x="1490" y="1145" />
            </Array>
          </mxGeometry>
        </mxCell>
        <mxCell id="UNE42eeyvyQ6CrdMO4MG-22" style="edgeStyle=orthogonalEdgeStyle;rounded=0;orthogonalLoop=1;jettySize=auto;html=1;entryX=1;entryY=0.88;entryDx=0;entryDy=0;entryPerimeter=0;" parent="1" source="UNE42eeyvyQ6CrdMO4MG-5" target="C67LLcp0CAZSQti3y-RA-2" edge="1">
          <mxGeometry relative="1" as="geometry" />
        </mxCell>
        <mxCell id="UNE42eeyvyQ6CrdMO4MG-23" style="edgeStyle=orthogonalEdgeStyle;rounded=0;orthogonalLoop=1;jettySize=auto;html=1;entryX=0.006;entryY=0.568;entryDx=0;entryDy=0;entryPerimeter=0;" parent="1" source="UNE42eeyvyQ6CrdMO4MG-2" target="C67LLcp0CAZSQti3y-RA-17" edge="1">
          <mxGeometry relative="1" as="geometry" />
        </mxCell>
        <mxCell id="UNE42eeyvyQ6CrdMO4MG-27" style="edgeStyle=orthogonalEdgeStyle;rounded=0;orthogonalLoop=1;jettySize=auto;html=1;exitX=0;exitY=0.5;exitDx=0;exitDy=0;entryX=1.025;entryY=0.56;entryDx=0;entryDy=0;entryPerimeter=0;" parent="1" source="C67LLcp0CAZSQti3y-RA-12" target="C67LLcp0CAZSQti3y-RA-2" edge="1">
          <mxGeometry relative="1" as="geometry" />
        </mxCell>
        <mxCell id="UNE42eeyvyQ6CrdMO4MG-28" style="edgeStyle=orthogonalEdgeStyle;rounded=0;orthogonalLoop=1;jettySize=auto;html=1;entryX=0.5;entryY=0;entryDx=0;entryDy=0;entryPerimeter=0;" parent="1" source="C67LLcp0CAZSQti3y-RA-12" target="UNE42eeyvyQ6CrdMO4MG-4" edge="1">
          <mxGeometry relative="1" as="geometry">
            <Array as="points">
              <mxPoint x="1300" y="600" />
              <mxPoint x="1040" y="600" />
            </Array>
            <mxPoint x="1040" y="750" as="targetPoint" />
          </mxGeometry>
        </mxCell>
        <mxCell id="UNE42eeyvyQ6CrdMO4MG-31" value="0..n" style="text;html=1;align=center;verticalAlign=middle;resizable=0;points=[];autosize=1;" parent="1" vertex="1">
          <mxGeometry x="580" y="870" width="40" height="20" as="geometry" />
        </mxCell>
        <mxCell id="UNE42eeyvyQ6CrdMO4MG-32" value="&lt;div&gt;1&lt;/div&gt;" style="text;html=1;align=center;verticalAlign=middle;resizable=0;points=[];autosize=1;" parent="1" vertex="1">
          <mxGeometry x="870" y="580" width="20" height="20" as="geometry" />
        </mxCell>
        <mxCell id="UNE42eeyvyQ6CrdMO4MG-33" value="0..n" style="text;html=1;align=center;verticalAlign=middle;resizable=0;points=[];autosize=1;" parent="1" vertex="1">
          <mxGeometry x="910" y="880" width="40" height="20" as="geometry" />
        </mxCell>
        <mxCell id="UNE42eeyvyQ6CrdMO4MG-34" value="&lt;div&gt;1&lt;/div&gt;" style="text;html=1;align=center;verticalAlign=middle;resizable=0;points=[];autosize=1;" parent="1" vertex="1">
          <mxGeometry x="870" y="510" width="20" height="20" as="geometry" />
        </mxCell>
        <mxCell id="UNE42eeyvyQ6CrdMO4MG-35" value="&lt;div&gt;1&lt;/div&gt;" style="text;html=1;align=center;verticalAlign=middle;resizable=0;points=[];autosize=1;" parent="1" vertex="1">
          <mxGeometry x="1180" y="420" width="20" height="20" as="geometry" />
        </mxCell>
        <mxCell id="UNE42eeyvyQ6CrdMO4MG-36" value="0..n" style="text;html=1;align=center;verticalAlign=middle;resizable=0;points=[];autosize=1;" parent="1" vertex="1">
          <mxGeometry x="250" y="820" width="40" height="20" as="geometry" />
        </mxCell>
        <mxCell id="UNE42eeyvyQ6CrdMO4MG-37" value="&lt;div&gt;1&lt;/div&gt;" style="text;html=1;align=center;verticalAlign=middle;resizable=0;points=[];autosize=1;" parent="1" vertex="1">
          <mxGeometry x="660" y="590" width="20" height="20" as="geometry" />
        </mxCell>
        <mxCell id="UNE42eeyvyQ6CrdMO4MG-38" value="1..n" style="text;html=1;align=center;verticalAlign=middle;resizable=0;points=[];autosize=1;" parent="1" vertex="1">
          <mxGeometry x="360" y="900" width="40" height="20" as="geometry" />
        </mxCell>
        <mxCell id="UNE42eeyvyQ6CrdMO4MG-39" value="&lt;div&gt;1&lt;/div&gt;" style="text;html=1;align=center;verticalAlign=middle;resizable=0;points=[];autosize=1;" parent="1" vertex="1">
          <mxGeometry x="1200" y="1100" width="20" height="20" as="geometry" />
        </mxCell>
        <mxCell id="UNE42eeyvyQ6CrdMO4MG-40" value="0..n" style="text;html=1;align=center;verticalAlign=middle;resizable=0;points=[];autosize=1;" parent="1" vertex="1">
          <mxGeometry x="1130" y="920" width="40" height="20" as="geometry" />
        </mxCell>
        <mxCell id="UNE42eeyvyQ6CrdMO4MG-41" value="&lt;div&gt;1&lt;/div&gt;" style="text;html=1;align=center;verticalAlign=middle;resizable=0;points=[];autosize=1;" parent="1" vertex="1">
          <mxGeometry x="1270" y="510" width="20" height="20" as="geometry" />
        </mxCell>
        <mxCell id="UNE42eeyvyQ6CrdMO4MG-42" value="0..n" style="text;html=1;align=center;verticalAlign=middle;resizable=0;points=[];autosize=1;" parent="1" vertex="1">
          <mxGeometry x="990" y="730" width="40" height="20" as="geometry" />
        </mxCell>
        <mxCell id="eStRTPHBm_ouqC9jKteA-1" value="&lt;div&gt;1&lt;/div&gt;" style="text;html=1;align=center;verticalAlign=middle;resizable=0;points=[];autosize=1;" parent="1" vertex="1">
          <mxGeometry x="1320" y="770" width="20" height="20" as="geometry" />
        </mxCell>
        <mxCell id="eStRTPHBm_ouqC9jKteA-2" value="0..n" style="text;html=1;align=center;verticalAlign=middle;resizable=0;points=[];autosize=1;" parent="1" vertex="1">
          <mxGeometry x="1320" y="960" width="40" height="20" as="geometry" />
        </mxCell>
        <mxCell id="eStRTPHBm_ouqC9jKteA-4" style="edgeStyle=orthogonalEdgeStyle;rounded=0;orthogonalLoop=1;jettySize=auto;html=1;entryX=0.5;entryY=0;entryDx=0;entryDy=0;" parent="1" source="C67LLcp0CAZSQti3y-RA-14" target="UNE42eeyvyQ6CrdMO4MG-8" edge="1">
          <mxGeometry relative="1" as="geometry" />
        </mxCell>
      </root>
    </mxGraphModel>
  </diagram>
</mxfile>
